<?xml version="1.0" standalone="no"?>
<!DOCTYPE svg PUBLIC "-//W3C//DTD SVG 20010904//EN"
 "http://www.w3.org/TR/2001/REC-SVG-20010904/DTD/svg10.dtd">
<svg version="1.0" xmlns="http://www.w3.org/2000/svg"
 width="512.000000pt" height="512.000000pt" viewBox="0 0 512.000000 512.000000"
 preserveAspectRatio="xMidYMid meet">
<metadata>
Created by potrace 1.11, written by Peter Selinger 2001-2013
</metadata>
<g transform="translate(0.000000,512.000000) scale(0.100000,-0.100000)"
fill="#000000" stroke="none">
<path d="M2675 5113 c-313 -37 -570 -141 -840 -337 -9 -7 -35 0 -82 21 -160
73 -329 106 -548 106 -657 1 -1074 -376 -1182 -1067 -27 -172 -24 -477 5 -624
80 -399 301 -692 635 -842 l77 -35 2 -613 3 -614 33 -29 32 -29 1300 0 c801 0
1308 4 1324 10 59 22 58 2 59 667 l2 607 90 46 c140 70 231 136 341 245 210
208 327 454 369 773 45 340 -17 736 -160 1024 -170 342 -493 580 -900 663
-132 27 -442 43 -560 28z m485 -229 c349 -54 638 -261 788 -565 152 -310 192
-766 95 -1099 -82 -283 -285 -524 -548 -650 -44 -21 -98 -43 -121 -49 -22 -6
-51 -22 -65 -37 l-24 -26 -3 -599 -2 -599 -1163 2 -1162 3 -5 603 -5 604 -23
18 c-12 10 -48 26 -79 35 -146 43 -309 153 -408 277 -73 92 -149 248 -180 371
-49 195 -53 450 -9 700 79 459 357 745 783 807 96 14 335 9 421 -10 30 -6 86
-21 123 -31 82 -24 83 -23 -51 -112 -169 -112 -295 -166 -402 -171 -78 -4
-104 -16 -125 -56 -20 -39 -19 -69 4 -106 26 -43 76 -58 161 -50 190 17 438
150 710 381 116 98 198 157 283 204 159 87 368 153 542 170 114 11 342 4 465
-15z"/>
<path d="M1574 2585 c-30 -21 -48 -69 -39 -107 27 -123 4 -404 -42 -513 -87
-209 -87 -207 -72 -250 19 -55 73 -83 130 -66 44 13 45 16 111 166 61 140 63
146 89 350 29 233 13 367 -48 415 -31 24 -99 27 -129 5z"/>
<path d="M2450 2501 c-48 -50 -77 -114 -90 -196 -13 -80 -7 -139 31 -343 16
-85 29 -167 29 -182 0 -87 133 -125 189 -54 29 37 27 91 -9 279 -42 220 -38
321 13 364 23 18 32 76 17 111 -16 39 -51 60 -101 60 -36 0 -48 -6 -79 -39z"/>
<path d="M4470 1755 c-73 -21 -471 -214 -522 -253 -82 -62 -144 -154 -174
-257 -17 -59 -23 -200 -11 -240 6 -18 -66 -54 -726 -364 -1007 -474 -955 -449
-972 -482 -25 -48 -19 -87 19 -125 24 -24 43 -34 64 -34 20 0 339 145 869 395
l839 395 57 -55 c66 -62 171 -118 254 -136 74 -15 192 -6 263 19 111 41 454
211 506 251 99 77 171 216 181 348 18 235 -123 450 -347 530 -75 26 -223 30
-300 8z m243 -215 c188 -70 253 -322 122 -468 -45 -49 -88 -73 -360 -200 -130
-61 -145 -65 -210 -65 -173 -1 -305 144 -293 321 11 144 58 191 323 315 110
52 214 99 230 105 48 17 130 14 188 -8z"/>
</g>
</svg>
